<svg xmlns="http://www.w3.org/2000/svg" viewBox="0 0 98.76 15.26"><title>Ресурс 4</title><g id="Слой_2" data-name="Слой 2"><g id="Layer_1" data-name="Layer 1"><path d="M11.51,12.19a6,6,0,1,1,0-9L12.64,2a7.58,7.58,0,1,0,0,11.28Z"/><path d="M34.68,15.22a7.56,7.56,0,1,1,7.56-7.56A7.57,7.57,0,0,1,34.68,15.22Zm0-13.52a6,6,0,1,0,6,6A6,6,0,0,0,34.68,1.7Z"/><polygon points="72.25 15.22 70.66 15.22 70.66 3.85 64.54 9.02 58.46 3.85 58.46 15.22 56.86 15.22 56.86 0 64.56 6.76 72.25 0 72.25 15.22"/><path d="M97,7.61a4.25,4.25,0,0,0,1.72-3.42A4.18,4.18,0,0,0,94.59,0H87.76v15.2h6.83A4.18,4.18,0,0,0,98.76,11,4.25,4.25,0,0,0,97,7.61Zm-2.46-6a2.56,2.56,0,0,1,2.56,2.56A2.62,2.62,0,0,1,94.59,6.8h-5.2V1.63Zm0,12h-5.2V8.42h5.2A2.62,2.62,0,0,1,97.14,11,2.56,2.56,0,0,1,94.59,13.59Z"/></g></g></svg>