<svg xmlns="http://www.w3.org/2000/svg" width="50" height="50" viewBox="0 0 50 50">
    <path d="M39.857,10.153C35.896,6.188,30.624,4.002,25.012,4C13.444,4,4.029,13.412,4.025,24.979 C4.024,28.523,4.92,32.014,6.62,35.102l-2.727,9.957c-0.095,0.345,0.002,0.714,0.253,0.968c0.19,0.192,0.447,0.297,0.711,0.297 c0.084,0,0.17-0.011,0.254-0.033l10.217-2.68c2.973,1.547,6.31,2.364,9.685,2.366c11.568,0,20.983-9.412,20.987-20.981 C46.002,19.39,43.82,14.119,39.857,10.153z M34.79,32.122c-0.416,1.166-2.412,2.231-3.371,2.374c-0.86,0.128-1.95,0.182-3.146-0.198 c-0.726-0.231-1.655-0.538-2.848-1.052c-5.009-2.163-8.281-7.206-8.531-7.539c-0.249-0.334-2.039-2.708-2.039-5.165 s1.29-3.665,1.748-4.165s0.999-0.625,1.332-0.625s0.666,0.004,0.957,0.018c0.307,0.015,0.719-0.117,1.124,0.857 c0.416,1,1.415,3.457,1.538,3.708c0.125,0.25,0.208,0.542,0.042,0.875s-0.249,0.541-0.499,0.833s-0.524,0.651-0.749,0.875 c-0.25,0.249-0.51,0.519-0.219,1.019s1.293,2.135,2.778,3.459c1.907,1.701,3.517,2.228,4.016,2.478s0.791,0.208,1.082-0.125 c0.291-0.334,1.248-1.458,1.581-1.958s0.666-0.417,1.124-0.25c0.458,0.166,2.914,1.374,3.413,1.624s0.832,0.375,0.957,0.583 S35.206,30.956,34.79,32.122z"/>
</svg>